<?xml version="1.0" encoding="utf-8"?>
<!-- Generator: Adobe Illustrator 19.0.0, SVG Export Plug-In . SVG Version: 6.00 Build 0)  -->
<svg version="1.1" id="Calque_1" focusable="false" xmlns="http://www.w3.org/2000/svg" xmlns:xlink="http://www.w3.org/1999/xlink"
	 x="0px" y="0px" viewBox="22 164.9 640 512" style="enable-background:new 22 164.9 640 512;" xml:space="preserve">
<style type="text/css">
	.st0{fill:url(#SVGID_1_);}
	.st1{fill:#12CCAD;}
</style>
<g>
	<linearGradient id="SVGID_1_" gradientUnits="userSpaceOnUse" x1="432.6239" y1="726.913" x2="231.3779" y2="173.994">
		<stop  offset="0.1985" style="stop-color:#3C1D91"/>
		<stop  offset="0.4578" style="stop-color:#291688"/>
		<stop  offset="0.8081" style="stop-color:#090979"/>
	</linearGradient>
	<path class="st0" d="M294,672.5c-50.5,0-91.5-41-91.5-91.5c0-23.2,8.7-45.3,24.6-62.2c15.8-16.8,37.1-26.9,60.1-28.7
		c2.5-0.2,4.3-2.3,4.2-4.8c-0.1-1.4-0.3-2.7-0.5-3.9c-0.2-1.6-0.4-3.1-0.4-4.5c0-59.3,48.2-107.5,107.5-107.5
		c42,0,80.3,24.9,97.8,63.4c0.5,1.2,1.6,2.1,2.8,2.4c0.4,0.1,0.9,0.2,1.3,0.2c0.8,0,1.7-0.2,2.4-0.7c9.7-6.1,20.7-9.3,31.7-9.3
		c32.8,0,59.5,26.7,59.5,59.5c0,0.7-0.2,1.5-0.3,2.5c-0.2,0.8-0.3,1.7-0.4,2.7c-0.2,2.1,1,4,3,4.7c36.9,12.8,61.8,47.4,61.8,86.1
		c0,50.5-41,91.5-91.5,91.5H294z M98.2,547.1c-3.4,0-6.7-1.7-8.7-4.5c-1.2-1.6-2.9-5-1.4-9.5l29.3-87.8c0.7-2.1-0.3-4.4-2.3-5.5
		l-82.8-41.4c-3.7-1.9-5.9-5.4-5.9-9.5c0-4.1,2.2-7.7,5.9-9.5l82.8-41.5c2-1,3-3.3,2.3-5.4l-29.3-87.8c-1.5-4.5,0.3-7.9,1.5-9.5
		c2.1-2.8,5.3-4.5,8.7-4.5c1.1,0,2.3,0.2,3.4,0.6l87.9,29.3c0.5,0.2,0.9,0.2,1.4,0.2c1.7,0,3.2-0.9,4-2.5l41.4-82.8
		c1.9-3.7,5.4-5.9,9.6-5.9c4.1,0,7.7,2.2,9.5,5.9l41.5,82.8c0.8,1.6,2.4,2.5,4,2.5c0.5,0,1-0.1,1.4-0.2l87.8-29.3
		c1.1-0.4,2.3-0.6,3.4-0.6c3.4,0,6.7,1.7,8.7,4.5c1.2,1.6,2.9,5,1.4,9.5l-28.9,86.3c-9.2,1.4-17.5,3.4-25,5.9
		c-5.8-11.6-13-21.8-21.4-30.3c-22-22-51.2-34.1-82.4-34.1s-60.4,12.1-82.4,34.1c-22,21.9-34.1,51.1-34.1,82.2
		c0,31.2,12.1,60.4,34.1,82.4c9.2,9.2,19.8,16.7,31.6,22.4c-7.5,8.5-13.9,17.9-19.2,28.3l-74.3,24.7
		C100.6,546.9,99.4,547.1,98.2,547.1C98.2,547.1,98.2,547.1,98.2,547.1z M229.1,466.3c-36.4-7.9-62.6-40.2-62.6-77.5
		c0-43.8,35.7-79.4,79.5-79.4c29.8,0,57.1,16.9,70.7,43.4c-36,23.6-59.7,60.9-65.7,103.3C244,458.5,236.8,461.9,229.1,466.3z"/>
	<path class="st1" d="M246,173.9c1.1,0,3.9,0.3,5.4,3.4c0,0,0,0,0,0.1l41.5,82.8c1.6,3.1,4.7,5,8,5c0.9,0,1.9-0.2,2.8-0.5l87.8-29.3
		c0.7-0.2,1.4-0.3,2.1-0.3c2,0,3.8,1,5,2.6c0.8,1.1,1.6,3,0.8,5.5l-28.1,83.7c-6.9,1.2-13.3,2.7-19.3,4.5c-5.7-10.7-12.5-20-20.5-28
		c-22.8-22.8-53.2-35.4-85.6-35.4s-62.7,12.6-85.6,35.4c-22.8,22.8-35.4,53.1-35.4,85.4c0,32.4,12.6,62.8,35.4,85.6
		c8.2,8.2,17.5,15.1,27.7,20.6c-5.8,7.1-10.9,14.9-15.2,23.1l-72.6,24.1c-0.7,0.2-1.4,0.3-2.1,0.3c-2,0-3.8-1-5-2.6
		c-0.8-1.1-1.6-3-0.8-5.5l29.3-87.8c1.4-4.2-0.5-8.9-4.5-10.9l-82.8-41.4c-3.1-1.5-3.4-4.4-3.4-5.5c0-1.1,0.3-4,3.4-5.5l82.8-41.5
		c4-2,5.9-6.6,4.5-10.9l-29.3-87.8c-0.9-2.6,0.2-4.5,0.8-5.5c1.2-1.7,3.1-2.7,5-2.7c0.6,0,1.3,0.1,2,0.3l87.9,29.3
		c0.9,0.3,1.9,0.5,2.8,0.5c3.3,0,6.5-1.9,8.1-5l41.4-82.8C242,174.2,244.8,173.9,246,173.9 M246,313.9c26.8,0,51.4,14.5,64.8,37.4
		c-34.4,23.9-57.3,60.2-63.8,101.4c-6,2.3-12.1,5.2-18.5,8.8c-33.5-8-57.4-38.1-57.4-72.8C171,347.5,204.6,313.9,246,313.9 M398,374
		c20.1,0,39.7,5.9,56.4,17c16.3,10.8,29.2,25.9,37.3,43.8c1.1,2.4,3.1,4.2,5.6,4.9c0.9,0.3,1.7,0.4,2.6,0.4c1.7,0,3.3-0.5,4.8-1.4
		c9-5.6,19.2-8.6,29.3-8.6c30.3,0,55,24.7,55,55c0,0.3-0.2,1-0.3,1.6c-0.2,0.8-0.4,1.9-0.5,3c-0.4,4.2,2.1,8.1,6,9.4
		c17,5.9,31.6,16.6,42.2,31.1C647.3,545,653,562.6,653,581c0,48-39,87-87,87H294c-48,0-87-39-87-87c0-22,8.3-43,23.4-59.1
		c15-15.9,35.3-25.6,57.2-27.3c4.9-0.4,8.6-4.7,8.3-9.6c-0.1-1.5-0.3-3-0.5-4.2c-0.2-1.5-0.4-2.7-0.4-3.9
		C295,420.2,341.2,374,398,374 M246,164.9c-5.4,0-10.8,2.8-13.6,8.4L191,256.1l-87.9-29.3c-1.6-0.5-3.2-0.8-4.8-0.8
		c-9.8,0-17.8,9.8-14.4,20l29.3,87.8l-82.8,41.5c-11.2,5.6-11.2,21.5,0,27.1l82.8,41.4l-29.3,87.8c-3.4,10.3,4.5,20,14.3,20
		c1.6,0,3.2-0.3,4.9-0.8l76.1-25.3c6.1-12.4,14-23.7,23.6-33.5c-13.1-5.4-25.4-13.4-36-24c-43.7-43.7-43.7-114.7,0-158.3
		c21.9-21.9,50.5-32.8,79.2-32.8s57.4,10.9,79.2,32.8c9.7,9.7,16.9,20.9,22.3,32.7c9.8-3.7,20.1-6,30.7-7.5L408,246
		c3.4-10.3-4.5-20-14.3-20c-1.6,0-3.2,0.3-4.9,0.8L301,256.1l-41.5-82.8C256.8,167.7,251.4,164.9,246,164.9L246,164.9z M246,304.9
		c-46.3,0-84,37.6-84,83.9c0,40.8,29.3,74.8,67.9,82.3c8-4.7,16.3-8.8,25.2-11.7c5.4-44.3,31-82.5,67.4-105
		C309.3,325.3,280,304.9,246,304.9L246,304.9z M398,365c-61.8,0-112,50.1-112,112c0,3,0.7,5.8,0.9,8.7
		c-49.6,3.7-88.9,44.7-88.9,95.3c0,53,43,96,96,96h272c53,0,96-43,96-96c0-42.1-27.2-77.4-64.8-90.4c0.2-1.9,0.8-3.7,0.8-5.6
		c0-35.3-28.7-64-64-64c-12.6,0-24.2,3.8-34.1,10C482.3,392.2,443.4,365,398,365L398,365z"/>
</g>
</svg>
